<?xml version="1.0" encoding="utf-8"?>
<!-- Generator: Adobe Illustrator 22.1.0, SVG Export Plug-In . SVG Version: 6.00 Build 0)  -->
<svg version="1.1" id="Ebene_1" xmlns="http://www.w3.org/2000/svg" xmlns:xlink="http://www.w3.org/1999/xlink" x="0px" y="0px"
	 viewBox="0 0 981.62 311.03" style="enable-background:new 0 0 981.62 311.03;" xml:space="preserve">
<style type="text/css">
	.st0{fill:#181715;}
	.st1{fill:#801D1A;}
</style>
<path class="st0" d="M132.11,133.39c1.19,0,1.78,0.62,1.78,1.86v23.41c0,1.73,0.11,3.16,0.32,4.29c0.21,1.13,0.62,2.04,1.21,2.71
	c0.59,0.68,1.43,1.16,2.51,1.46c1.08,0.3,2.51,0.45,4.29,0.45h20.82c1.78,0,3.24-0.15,4.37-0.45c1.13-0.3,2.04-0.78,2.71-1.46
	c0.68-0.67,1.15-1.58,1.42-2.71c0.27-1.13,0.41-2.56,0.41-4.29v-23.41c0-1.24,0.59-1.86,1.78-1.86h7.94c1.19,0,1.78,0.62,1.78,1.86
	v26.24c0,2.92-0.32,5.41-0.97,7.49c-0.65,2.08-1.71,3.78-3.2,5.1c-1.49,1.32-3.47,2.28-5.95,2.88c-2.48,0.59-5.54,0.89-9.15,0.89
	h-22.6c-3.67,0-6.74-0.3-9.19-0.89c-2.46-0.59-4.43-1.55-5.91-2.88c-1.49-1.32-2.55-3.02-3.2-5.1c-0.65-2.08-0.97-4.58-0.97-7.49
	v-26.24c0-1.24,0.62-1.86,1.86-1.86H132.11z"/>
<path class="st0" d="M233.91,133.39c3.62,0,6.67,0.31,9.15,0.93c2.48,0.62,4.47,1.59,5.95,2.92c1.48,1.32,2.55,3.02,3.2,5.1
	c0.65,2.08,0.97,4.58,0.97,7.49v26.24c0,1.19-0.59,1.78-1.78,1.78h-7.94c-1.19,0-1.78-0.59-1.78-1.78v-23.49
	c0-1.67-0.11-3.09-0.32-4.25c-0.22-1.16-0.64-2.08-1.26-2.75c-0.62-0.67-1.47-1.16-2.55-1.46c-1.08-0.29-2.48-0.45-4.21-0.45H211.8
	c-1.73,0-3.16,0.15-4.29,0.45c-1.13,0.3-2.04,0.78-2.71,1.46c-0.68,0.68-1.15,1.59-1.42,2.75c-0.27,1.16-0.4,2.58-0.4,4.25v23.49
	c0,1.19-0.6,1.78-1.78,1.78h-7.94c-1.24,0-1.86-0.59-1.86-1.78v-26.24c0-2.92,0.32-5.41,0.97-7.49c0.65-2.08,1.71-3.78,3.2-5.1
	c1.48-1.32,3.46-2.29,5.91-2.92c2.46-0.62,5.52-0.93,9.19-0.93H233.91z"/>
<path class="st0" d="M271.2,116.95c1.19,0,1.78,0.59,1.78,1.78v7.69c0,1.24-0.6,1.86-1.78,1.86h-7.94c-1.24,0-1.86-0.62-1.86-1.86
	v-7.69c0-1.19,0.62-1.78,1.86-1.78H271.2z M271.2,133.39c1.19,0,1.78,0.62,1.78,1.86v40.82c0,1.19-0.6,1.78-1.78,1.78h-7.94
	c-1.19,0-1.78-0.59-1.78-1.78v-40.82c0-1.24,0.59-1.86,1.78-1.86H271.2z"/>
<path class="st0" d="M332.17,133.39c0.97,0,1.46,0.49,1.46,1.46v6.8c0,0.97-0.49,1.46-1.46,1.46h-31.43c-1.78,0-3.24,0.15-4.37,0.44
	c-1.13,0.3-2.03,0.78-2.67,1.46c-0.65,0.68-1.11,1.59-1.38,2.75c-0.27,1.16-0.4,2.58-0.4,4.25v7.21c0,1.73,0.13,3.16,0.4,4.29
	c0.27,1.13,0.73,2.04,1.38,2.71c0.65,0.68,1.54,1.16,2.67,1.46c1.13,0.3,2.59,0.45,4.37,0.45h31.43c0.97,0,1.46,0.49,1.46,1.46v6.8
	c0,0.97-0.49,1.46-1.46,1.46h-32.56c-3.67,0-6.74-0.3-9.19-0.89c-2.46-0.59-4.43-1.55-5.91-2.88c-1.49-1.32-2.55-3.02-3.2-5.1
	c-0.65-2.08-0.97-4.58-0.97-7.49v-11.66c0-2.92,0.32-5.41,0.97-7.49c0.65-2.08,1.71-3.78,3.2-5.1c1.48-1.32,3.46-2.29,5.91-2.92
	c2.46-0.62,5.52-0.93,9.19-0.93H332.17z"/>
<path class="st0" d="M377.2,133.39c3.62,0,6.67,0.31,9.15,0.93c2.48,0.62,4.47,1.59,5.95,2.92c1.48,1.32,2.55,3.02,3.2,5.1
	c0.65,2.08,0.97,4.58,0.97,7.49v21.55c0,1.3-0.1,2.36-0.28,3.2c-0.19,0.84-0.51,1.5-0.97,1.98c-0.46,0.49-1.07,0.82-1.82,1.01
	c-0.76,0.19-1.73,0.28-2.92,0.28h-38.56c-2.38,0-4.36-0.23-5.95-0.69c-1.59-0.46-2.88-1.15-3.85-2.07
	c-0.97-0.92-1.66-2.11-2.07-3.56c-0.41-1.46-0.61-3.19-0.61-5.18v-3.89c0-1.67,0.2-3.17,0.61-4.5c0.4-1.32,1.09-2.44,2.07-3.36
	c0.97-0.92,2.25-1.61,3.85-2.07c1.59-0.46,3.58-0.69,5.95-0.69h32.97v-1.54c0-1.3-0.14-2.4-0.41-3.32
	c-0.27-0.92-0.73-1.66-1.38-2.23c-0.65-0.57-1.54-0.99-2.67-1.26c-1.13-0.27-2.59-0.4-4.37-0.4h-33.86c-0.97,0-1.46-0.49-1.46-1.46
	v-6.8c0-0.97,0.48-1.46,1.46-1.46H377.2z M382.54,168.95c0.86,0,1.47-0.2,1.82-0.61c0.35-0.41,0.53-1.12,0.53-2.15v-7.13h-29.65
	c-1.68,0-2.85,0.34-3.52,1.01c-0.68,0.68-1.01,1.66-1.01,2.96v1.7c0,1.46,0.34,2.52,1.01,3.2c0.67,0.68,1.85,1.01,3.52,1.01H382.54z
	"/>
<path class="st0" d="M445.9,133.39c0.97,0,1.46,0.49,1.46,1.46v6.8c0,0.97-0.49,1.46-1.46,1.46h-21.55c-1.73,0-3.16,0.15-4.29,0.44
	c-1.13,0.3-2.04,0.78-2.71,1.46c-0.68,0.68-1.15,1.59-1.42,2.75c-0.27,1.16-0.4,2.58-0.4,4.25v24.06c0,1.19-0.6,1.78-1.78,1.78
	h-7.94c-1.24,0-1.86-0.59-1.86-1.78v-26.24c0-2.92,0.32-5.41,0.97-7.49c0.65-2.08,1.71-3.78,3.2-5.1c1.48-1.32,3.46-2.29,5.91-2.92
	c2.46-0.62,5.52-0.93,9.19-0.93H445.9z"/>
<path class="st1" d="M501.69,133.41c3.62,0,6.55,0.31,8.81,0.93c2.25,0.62,3.88,1.59,4.88,2.92c1,1.32,1.44,3.02,1.32,5.1
	c-0.12,2.08-0.71,4.58-1.79,7.49l-7.93,21.54c-0.48,1.3-0.97,2.36-1.46,3.2c-0.5,0.84-1.07,1.5-1.7,1.98
	c-0.64,0.49-1.37,0.83-2.19,1.01c-0.83,0.19-1.83,0.28-3.02,0.28h-38.55c-2.38,0-4.27-0.23-5.7-0.69c-1.43-0.46-2.45-1.15-3.09-2.07
	c-0.63-0.92-0.89-2.1-0.75-3.56c0.13-1.46,0.57-3.19,1.3-5.18l1.43-3.89c0.62-1.67,1.37-3.17,2.26-4.49
	c0.89-1.32,1.99-2.44,3.3-3.36c1.31-0.92,2.84-1.6,4.61-2.06c1.76-0.46,3.83-0.69,6.21-0.69h32.96l0.57-1.54
	c0.48-1.29,0.75-2.4,0.82-3.32c0.07-0.92-0.12-1.66-0.56-2.23c-0.44-0.57-1.18-0.98-2.21-1.25c-1.03-0.27-2.44-0.41-4.22-0.41
	h-33.85c-0.97,0-1.28-0.49-0.92-1.46l2.5-6.8c0.36-0.97,1.02-1.46,2-1.46H501.69z M493.94,168.96c0.86,0,1.54-0.2,2.04-0.61
	s0.94-1.12,1.32-2.14l2.63-7.13h-29.64c-1.67,0-2.97,0.34-3.9,1.01c-0.93,0.67-1.62,1.66-2.1,2.96l-0.63,1.7
	c-0.54,1.46-0.59,2.52-0.17,3.2c0.42,0.68,1.48,1.01,3.15,1.01H493.94z"/>
<path class="st1" d="M578.78,133.36c3.93,0,7.1,0.33,9.48,1c2.39,0.67,4.14,1.69,5.24,3.08c1.11,1.39,1.58,3.2,1.43,5.42
	c-0.16,2.23-0.81,4.9-1.96,8.03l-11.64,31.59c-1.17,3.18-2.5,5.89-3.99,8.12c-1.49,2.23-3.3,4.05-5.44,5.47
	c-2.14,1.42-4.65,2.46-7.53,3.13c-2.88,0.66-6.28,1-10.22,1h-40.88c-1.04,0-1.37-0.52-0.99-1.56l2.69-7.29
	c0.38-1.04,1.1-1.56,2.14-1.56h39.66c1.91,0,3.53-0.16,4.86-0.48c1.33-0.32,2.49-0.84,3.48-1.56c0.99-0.72,1.86-1.71,2.61-2.95
	c0.75-1.24,1.46-2.79,2.14-4.64l0.83-2.26h-32.63c-3.94,0-7.1-0.33-9.48-1c-2.39-0.66-4.12-1.71-5.19-3.13
	c-1.07-1.42-1.54-3.24-1.41-5.47c0.13-2.23,0.78-4.93,1.95-8.12l3.36-9.11c1.17-3.18,2.52-5.89,4.03-8.12
	c1.51-2.23,3.33-4.05,5.44-5.47c2.11-1.42,4.61-2.46,7.49-3.13c2.88-0.66,6.28-1,10.22-1H578.78z M536.38,160.09
	c-0.55,1.51-0.88,2.76-0.96,3.78c-0.08,1.01,0.11,1.85,0.59,2.52c0.48,0.67,1.27,1.14,2.38,1.43c1.11,0.29,2.59,0.43,4.44,0.43
	h31.42l5.98-16.23c1.13-3.07,1.28-5.24,0.44-6.51c-0.83-1.27-3.13-1.91-6.89-1.91h-21.87c-1.85,0-3.44,0.15-4.76,0.43
	c-1.32,0.29-2.47,0.77-3.44,1.43c-0.97,0.67-1.79,1.52-2.46,2.56c-0.67,1.04-1.28,2.29-1.81,3.73L536.38,160.09z"/>
<path class="st1" d="M623.69,133.41c1.19,0,1.55,0.62,1.1,1.86l-15.04,40.81c-0.44,1.19-1.25,1.78-2.44,1.78h-7.94
	c-1.19,0-1.56-0.59-1.13-1.78l15.04-40.81c0.46-1.24,1.28-1.86,2.47-1.86H623.69z M629.74,116.97c1.19,0,1.56,0.59,1.13,1.78
	l-2.83,7.69c-0.46,1.24-1.28,1.86-2.47,1.86h-7.94c-1.24,0-1.63-0.62-1.18-1.86l2.83-7.69c0.44-1.19,1.28-1.78,2.52-1.78H629.74z"/>
<path class="st1" d="M656.32,117.13c1.19,0,1.56,0.59,1.13,1.78l-21.06,57.17c-0.44,1.19-1.25,1.78-2.44,1.78h-7.94
	c-1.19,0-1.56-0.59-1.13-1.78l21.06-57.17c0.44-1.19,1.25-1.78,2.44-1.78H656.32z"/>
<path class="st1" d="M842.5,154.38v-6.56c0,0-0.02-0.64,0.56-0.31c0.76,0.43,14.75,8.63,14.75,8.63s0.3,0.16,0.3,0.38
	c0,0,0.03,0.17-0.31,0.38c-0.24,0.14-14.58,8.5-14.58,8.5s-0.69,0.5-0.69-0.19c0-0.44,0-5.91,0-5.91"/>
<g>
	<path class="st1" d="M858.56,154.96l-15.02-8.68c-0.46-0.27-1.04-0.27-1.5,0c-0.46,0.27-0.75,0.76-0.75,1.3v4.18h-81.12
		c-5.9,0-11.5-3.9-11.62-3.98l-15.22-9.72c-1.08-0.76-6.96-4.56-16.72-4.56h-47.29c-0.04,0-0.65,0.01-0.71,0.01
		c-1.16,0-1.52,0.31-1.92,1.33l-2.11,5.8c-0.22,0.75-0.06,1.19,0.19,1.41c0.32,0.28,0.61,0.41,1.28,0.41l50.57,0.05
		c7.29,0,11.34,2.78,11.56,2.94l15.29,9.77c0.81,0.57,8.2,5.56,16.71,5.56h81.12v4.18c0,0.54,0.29,1.03,0.75,1.3
		c0.23,0.13,0.49,0.2,0.75,0.2c0.26,0,0.52-0.07,0.75-0.2l15.02-8.68c0.46-0.27,0.75-0.76,0.75-1.3
		C859.31,155.72,859.02,155.23,858.56,154.96z"/>
	<path class="st1" d="M724.15,173.43c0-5.06-4.11-9.17-9.17-9.17c-3.34,0-6.38,1.8-7.99,4.67l-50.38,0c-0.04,0-0.2,0.01-0.27,0.01
		c-1.16,0-1.94,0.41-2.43,1.53l-1.88,5.16c-0.27,1-0.19,1.46,0.27,1.9c0.26,0.25,1.02,0.4,2.19,0.4l52.5,0
		c1.61,2.87,4.65,4.67,7.99,4.67C720.03,182.6,724.15,178.48,724.15,173.43z"/>
</g>
<path class="st0" d="M301.94,195.88c0,0-3.75-0.02-6.19,0c-1.69,0.01-2.38,1.29-2.54,1.65c-0.01,0.02-0.02,0.04-0.03,0.06
	c0,0.01-0.01,0.04-0.01,0.04l0,0c-16.61,36.46-52.78,59.82-93.15,59.82c-56.4,0-102.28-45.67-102.28-101.8
	c0-56.13,45.88-101.8,102.28-101.8c40.93,0,77.42,23.85,93.63,60.97l0.01-0.02c0,0,0.98,2.25,3.01,2.25h5.14c0,0,2.68,0.17,1.9-2.49
	c-8.08-20.24-21.81-37.54-39.81-50.08c-18.78-13.09-40.88-20.01-63.89-20.01c-61.57,0-111.66,49.87-111.66,111.18
	c0,61.3,50.09,111.17,111.66,111.17c22.96,0,45.02-6.92,63.81-20c17.67-12.31,31.25-29.18,39.43-48.97
	C303.84,195.81,301.94,195.88,301.94,195.88z"/>
</svg>
